<?xml version="1.0" encoding="UTF-8" standalone="no"?>
<!-- Created with Inkscape (http://www.inkscape.org/) -->

<svg
   xmlns:dc="http://purl.org/dc/elements/1.1/"
   xmlns:cc="http://creativecommons.org/ns#"
   xmlns:rdf="http://www.w3.org/1999/02/22-rdf-syntax-ns#"
   xmlns:svg="http://www.w3.org/2000/svg"
   xmlns="http://www.w3.org/2000/svg"
   xmlns:sodipodi="http://sodipodi.sourceforge.net/DTD/sodipodi-0.dtd"
   xmlns:inkscape="http://www.inkscape.org/namespaces/inkscape"
   width="800"
   height="800"
   id="svg5528"
   version="1.1"
   inkscape:version="0.48.5 r10040"
   sodipodi:docname="New document 5">
  <defs
     id="defs5530" />
  <sodipodi:namedview
     id="base"
     pagecolor="#ffffff"
     bordercolor="#666666"
     borderopacity="1.0"
     inkscape:pageopacity="0.0"
     inkscape:pageshadow="2"
     inkscape:zoom="0.48613591"
     inkscape:cx="686.13805"
     inkscape:cy="466.035"
     inkscape:current-layer="layer1"
     showgrid="true"
     inkscape:document-units="px"
     inkscape:grid-bbox="true"
     inkscape:window-width="1600"
     inkscape:window-height="878"
     inkscape:window-x="-8"
     inkscape:window-y="-8"
     inkscape:window-maximized="1" />
  <metadata
     id="metadata5533">
    <rdf:RDF>
      <cc:Work
         rdf:about="">
        <dc:format>image/svg+xml</dc:format>
        <dc:type
           rdf:resource="http://purl.org/dc/dcmitype/StillImage" />
        <dc:title></dc:title>
      </cc:Work>
    </rdf:RDF>
  </metadata>
  <g
     id="layer1"
     inkscape:label="Layer 1"
     inkscape:groupmode="layer"
     transform="translate(0,736)">
    <g
       id="g5507"
       transform="matrix(1.033994,0,0,1.0339939,-13.59758,-1010.5396)">
      <path
         id="path4698"
         d="m 160.394,951.55712 c 4.5767,-40.81651 14.75592,-79.58167 29.88007,-115.13831 -16.20258,-19.38258 -29.74855,-40.948 -40.19079,-63.95988 -38.61261,-1.81465 -77.988008,-9.44145 -116.732136,-23.03818 -3.314161,-1.15717 -6.654626,-2.34064 -9.968787,-3.49781 -0.710178,-3.4452 -1.420355,-6.91671 -2.130533,-10.36192 -4.708213,-22.93298 -7.3385,-46.31305 -7.864557,-69.71942 -0.07891,-3.52411 -0.157818,-7.04822 -0.236726,-10.57232 2.972224,-1.86725 5.970752,-3.76081 8.942975,-5.62806 34.746092,-21.88101 71.438595,-38.08137 108.657154,-48.44329 5.05015,-24.74764 13.44077,-48.78519 24.93512,-71.27108 -22.67307,-31.29617 -41.2166,-66.85281 -54.76257,-105.61796 -1.157328,-3.31372 -2.314655,-6.65372 -3.471981,-9.96744 2.262047,-2.70883 4.524091,-5.41766 6.759841,-8.12648 15.01893,-17.98872 31.64235,-34.60988 49.63351,-49.62677 2.7092,-2.23544 5.41839,-4.49717 8.10129,-6.75891 3.31416,1.15716 6.65462,2.31433 9.96878,3.4715 38.77044,13.54414 74.30561,32.08514 105.63233,54.75513 22.48896,-11.49279 46.52978,-19.90857 71.28078,-24.95803 10.36333,-37.2398 26.56589,-73.90102 48.44988,-108.64238 1.86751,-2.97182 3.76131,-5.96994 5.62882,-8.94176 3.52458,0 7.04916,0.26299 10.57375,0.26299 23.40955,0.52599 46.7928,3.15592 69.72891,7.86349 3.44567,0.71008 6.89135,1.42016 10.36333,2.13024 1.15732,3.31371 2.34095,6.65372 3.49828,9.96744 13.59859,38.73886 21.22641,78.1089 23.04132,116.71626 23.01501,10.41452 44.58336,23.98496 63.96857,40.18532 35.56148,-15.12209 74.35822,-25.29992 115.15397,-29.876 3.49828,-0.39449 6.99656,-0.78897 10.49484,-1.15717 2.13054,2.78773 4.26107,5.60176 6.39161,8.38948 14.20354,18.6462 26.69741,38.55476 37.32376,59.41011 1.60448,3.1559 3.20896,6.28552 4.78713,9.41514 -1.8675,2.97182 -3.73501,5.96994 -5.60251,8.94176 -21.83139,34.79397 -47.81862,65.30115 -76.88329,90.78516 6.20747,24.51094 9.04819,49.81086 8.46953,75.05819 34.0096,18.3832 66.15171,42.34185 95.16378,71.40258 2.49876,2.49843 4.97124,4.97056 7.47,7.469 -0.86799,3.4189 -1.73598,6.83781 -2.57767,10.25671 -5.70772,22.7226 -13.49337,44.9192 -23.17283,66.22163 -1.44666,3.20851 -2.91962,6.41703 -4.36627,9.62554 -3.49829,0.39449 -6.99657,0.78897 -10.49486,1.18347 -40.79575,4.62867 -80.88132,3.31371 -118.91526,-3.49781 -15.28198,20.11896 -33.29944,38.13398 -53.42113,53.41386 6.83874,38.02879 8.12758,78.10891 3.49828,118.89911 -0.39454,3.49775 -0.78909,6.99565 -1.18364,10.49345 -3.20894,1.4727 -6.41789,2.9192 -9.62685,4.3919 -21.33163,9.6782 -43.53124,17.4628 -66.23062,23.1697 -3.41937,0.8679 -6.83875,1.7095 -10.25812,2.5774 -2.47246,-2.4985 -4.97124,-4.9706 -7.47002,-7.469 -29.06467,-29.0082 -53.02658,-61.1459 -71.41228,-95.15088 -25.25076,0.57858 -50.55412,-2.26175 -75.06839,-8.44208 -25.48749,29.03443 -55.99882,55.07072 -90.79752,76.87276 -2.97222,1.8673 -5.97075,3.7345 -8.94297,5.6018 -3.13004,-1.6042 -6.28639,-3.2085 -9.41643,-4.8128 -20.88447,-10.62486 -40.79575,-23.14332 -59.41818,-37.31864 -2.78811,-2.13024 -5.60251,-4.26049 -8.41692,-6.39073 0.44715,-3.5241 0.84169,-7.02191 1.23623,-10.51971 z"
         inkscape:connector-curvature="0"
         style="fill:#000000;stroke:#000000;stroke-width:0;stroke-linecap:round;stroke-linejoin:round;stroke-miterlimit:4;stroke-dasharray:none" />
      <path
         id="path4692"
         d="M 212.13175,833.10509 C 191.03685,810.06692 174.17672,783.21534 162.55084,754.20722 122.12333,753.60234 80.538494,746.21224 39.532319,731.82652 35.060831,709.9718 32.535756,687.7226 32.036001,665.4208 68.807414,642.27743 107.73566,625.84037 147.00584,616.24112 c 4.86604,-30.84906 15.36088,-60.80396 30.77436,-87.94483 -24.72469,-31.95364 -44.899,-69.08824 -59.20776,-110.11515 14.30876,-17.12084 30.14309,-32.95301 47.26626,-47.23353 41.03248,14.30682 78.14583,34.47838 110.13011,59.19971 27.14457,-15.41138 57.10354,-25.9048 87.9568,-30.77017 9.57425,-39.26484 26.03985,-78.18779 49.18637,-114.9542 22.30484,0.49968 44.55706,2.99812 66.41475,7.49529 14.38767,41.0006 21.77878,82.60608 22.38374,123.00179 28.98576,11.59799 55.86729,28.48214 78.9086,49.57417 36.66621,-16.98934 77.35675,-28.37693 120.54606,-33.21601 13.51967,17.75203 25.43488,36.71382 35.56148,56.56979 -23.09392,36.7927 -51.00126,68.50965 -82.22277,94.17777 8.99558,29.90229 12.54647,61.43514 10.41593,92.5998 36.16645,18.06763 70.43909,42.76265 101.13454,73.50653 -5.44469,21.64431 -12.8621,42.76265 -22.06811,63.0657 -43.16301,4.91798 -85.37911,2.84033 -124.91233,-5.54914 -17.78074,25.69441 -40.21708,48.1277 -65.88869,65.87972 8.41692,39.52785 10.46855,81.73821 5.57622,124.89535 -20.30582,9.23109 -41.45333,16.62119 -63.07429,22.06509 -30.74805,-30.69126 -55.44645,-64.98554 -73.54282,-101.12077 -31.1689,2.13025 -62.70604,-1.44645 -92.61241,-10.41451 -25.67159,31.21725 -57.39286,59.1471 -94.19058,82.21158 -19.88496,-10.12523 -38.84933,-22.0388 -56.57746,-35.55664 4.78712,-43.15714 16.17626,-83.81584 33.16791,-120.50337 z"
         inkscape:connector-curvature="0"
         style="fill:#ffffff;stroke:#000000;stroke-width:0;stroke-linecap:round;stroke-linejoin:round;stroke-miterlimit:4;stroke-dasharray:none" />
      <circle
         d="m 26.507,779.995 c 0,4.69662 -3.80737,8.50399 -8.504,8.50399 -4.696629,0 -8.5039995,-3.80737 -8.5039995,-8.50399 0,-4.69663 3.8073705,-8.504 8.5039995,-8.504 4.69663,0 8.504,3.80737 8.504,8.504 z"
         id="circle4694"
         r="8.5039997"
         cy="779.995"
         cx="18.003"
         sodipodi:cx="18.003"
         sodipodi:cy="779.995"
         sodipodi:rx="8.5039997"
         sodipodi:ry="8.5039997"
         style="fill:#000000;stroke:#000000;stroke-width:0;stroke-linecap:round;stroke-linejoin:round;stroke-miterlimit:4;stroke-dasharray:none"
         transform="matrix(26.30287,0,0,26.299293,-68.782899,-19856.234)" />
      <circle
         d="m 17.832,776.98798 c 0,1.56572 -1.269273,2.835 -2.835,2.835 -1.565728,0 -2.835,-1.26928 -2.835,-2.835 0,-1.56573 1.269272,-2.835 2.835,-2.835 1.565727,0 2.835,1.26927 2.835,2.835 z"
         id="circle4696"
         r="2.835"
         cy="776.98798"
         cx="14.997"
         sodipodi:cx="14.997"
         sodipodi:cy="776.98798"
         sodipodi:rx="2.835"
         sodipodi:ry="2.835"
         style="fill:#ffffff;stroke:#000000;stroke-width:0;stroke-linecap:round;stroke-linejoin:round;stroke-miterlimit:4;stroke-dasharray:none"
         transform="matrix(26.30287,0,0,26.299293,-68.782899,-19856.234)" />
    </g>
  </g>
</svg>
